# xmcd CD database file
#
# Track frame offsets:
#	150
#	20248
#	42673
#	59311
#	69678
#	81278
#	95569
#	109095
#	116713
#	122939
#	128753
#	152065
#	164613
#	181688
#	201219
#	218610
#	233655
#	240081
#	250802
#
# Disc length: 3577 seconds
#
# Revision: 3
# Processed by: cddbd v1.5.2PL0 Copyright (c) Steve Scherf et al.
# Submitted via: CDex 1.70beta2
#
DISCID=0b0df713
DTITLE=ACM - 祢是王
DYEAR=1998
DGENRE=Gospel
TTITLE0=序曲
TTITLE1=祢是王
TTITLE2=天地讚美
TTITLE3=讚美恩主
TTITLE4=祢是彌賽亞
TTITLE5=祢成就救恩
TTITLE6=我心尊主為大
TTITLE7=神完全的愛
TTITLE8=每當想到十架的愛
TTITLE9=奇異恩典
TTITLE10=奇妙雙手
TTITLE11=獨有主支持我
TTITLE12=祢讓我生命改變
TTITLE13=順服
TTITLE14=頌讚祢Hallelujah
TTITLE15=耶和華尼西
TTITLE16=信徒作主精兵
TTITLE17=永約的神
TTITLE18=祢是王
EXTD=YEAR: 1998
EXTT0=
EXTT1=
EXTT2=
EXTT3=
EXTT4=
EXTT5=
EXTT6=
EXTT7=
EXTT8=
EXTT9=
EXTT10=
EXTT11=
EXTT12=
EXTT13=
EXTT14=
EXTT15=
EXTT16=
EXTT17=
EXTT18=
PLAYORDER=
